{
  "accessors": [
    {
      "bufferView": 0,
      "componentType": 5125,
      "count": 3408,
      "type": "SCALAR"
    },
    {
      "bufferView": 1,
      "componentType": 5126,
      "count": 958,
      "max": [
        0.008054844128966787,
        -0.016725268806906418,
        0.0033999999141087747
      ],
      "min": [
        -0.010105785881747875,
        -0.023895536405698053,
        -0.0033999999141087764
      ],
      "type": "VEC3"
    },
    {
      "bufferView": 2,
      "componentType": 5126,
      "count": 958,
      "max": [
        0.70765071042208,
        0.9832915957710993,
        1.0
      ],
      "min": [
        -0.5595334992074045,
        -0.97105365261,
        -1.0
      ],
      "type": "VEC3"
    },
    {
      "bufferView": 3,
      "componentType": 5126,
      "count": 958,
      "max": [
        0.9963383405581135,
        1.0
      ],
      "min": [
        0.0,
        0.0
      ],
      "type": "VEC2"
    },
    {
      "bufferView": 4,
      "componentType": 5125,
      "count": 9216,
      "type": "SCALAR"
    },
    {
      "bufferView": 5,
      "componentType": 5126,
      "count": 2576,
      "max": [
        0.04168222552892803,
        0.04168203021643313,
        0.003399999914108773
      ],
      "min": [
        -0.041682030216433186,
        -0.041682225528928085,
        -0.0033999999141087764
      ],
      "type": "VEC3"
    },
    {
      "bufferView": 6,
      "componentType": 5126,
      "count": 2576,
      "max": [
        0.9237213663018852,
        0.9237212841061484,
        1.0
      ],
      "min": [
        -0.9237212019490415,
        -0.9237212841450353,
        -1.0
      ],
      "type": "VEC3"
    },
    {
      "bufferView": 7,
      "componentType": 5126,
      "count": 2576,
      "max": [
        0.8997417976378319,
        1.0
      ],
      "min": [
        0.0,
        0.0
      ],
      "type": "VEC2"
    },
    {
      "bufferView": 8,
      "componentType": 5125,
      "count": 9216,
      "type": "SCALAR"
    },
    {
      "bufferView": 9,
      "componentType": 5126,
      "count": 2574,
      "max": [
        0.04526777231501927,
        0.04526777227286044,
        0.0033999999141087747
      ],
      "min": [
        -0.04526777231501938,
        -0.045267772272860385,
        -0.0033999999141087764
      ],
      "type": "VEC3"
    },
    {
      "bufferView": 10,
      "componentType": 5126,
      "count": 2574,
      "max": [
        0.9189758156981881,
        0.9189751461352352,
        1.0
      ],
      "min": [
        -0.9189751461351301,
        -0.918975815698294,
        -1.0
      ],
      "type": "VEC3"
    },
    {
      "bufferView": 11,
      "componentType": 5126,
      "count": 2574,
      "max": [
        0.9870899225840711,
        1.0
      ],
      "min": [
        0.0,
        0.0
      ],
      "type": "VEC2"
    },
    {
      "bufferView": 12,
      "componentType": 5125,
      "count": 5190,
      "type": "SCALAR"
    },
    {
      "bufferView": 13,
      "componentType": 5126,
      "count": 1451,
      "max": [
        0.02598781520371979,
        0.010867038680006713,
        0.0033999999141087747
      ],
      "min": [
        0.006194015740526693,
        0.0025987323599559187,
        -0.0033999999141087764
      ],
      "type": "VEC3"
    },
    {
      "bufferView": 14,
      "componentType": 5126,
      "count": 1451,
      "max": [
        0.9660072746417927,
        0.9939746142234493,
        1.0
      ],
      "min": [
        -0.9976619903759321,
        -0.9996107212953474,
        -1.0
      ],
      "type": "VEC3"
    },
    {
      "bufferView": 15,
      "componentType": 5126,
      "count": 1451,
      "max": [
        1.0,
        0.9266586614475183
      ],
      "min": [
        0.0,
        0.0
      ],
      "type": "VEC2"
    },
    {
      "bufferView": 16,
      "componentType": 5125,
      "count": 5208,
      "type": "SCALAR"
    },
    {
      "bufferView": 17,
      "componentType": 5126,
      "count": 1456,
      "max": [
        -0.008098927040030457,
        0.010866991914697505,
        0.0033999999141087747
      ],
      "min": [
        -0.028035844199581744,
        0.002598732354882699,
        -0.0033999999141087764
      ],
      "type": "VEC3"
    },
    {
      "bufferView": 18,
      "componentType": 5126,
      "count": 1456,
      "max": [
        0.9960131745897098,
        0.9939885751070906,
        1.0
      ],
      "min": [
        -0.9607390045923573,
        -0.9996100141158868,
        -1.0
      ],
      "type": "VEC3"
    },
    {
      "bufferView": 19,
      "componentType": 5126,
      "count": 1456,
      "max": [
        1.0,
        0.9299412947746466
      ],
      "min": [
        0.0,
        0.0
      ],
      "type": "VEC2"
    },
    {
      "bufferView": 20,
      "componentType": 5125,
      "count": 6516,
      "type": "SCALAR"
    },
    {
      "bufferView": 21,
      "componentType": 5126,
      "count": 1820,
      "max": [
        0.0198871186478059,
        -0.003681449160619382,
        0.0033999999141087764
      ],
      "min": [
        -0.020863720367735983,
        -0.02635996027915022,
        -0.0033999999141087764
      ],
      "type": "VEC3"
    },
    {
      "bufferView": 22,
      "componentType": 5126,
      "count": 1820,
      "max": [
        0.979739151289299,
        0.9991997084481182,
        1.0
      ],
      "min": [
        -0.97777557658392,
        -0.9832916086543417,
        -1.0
      ],
      "type": "VEC3"
    },
    {
      "bufferView": 23,
      "componentType": 5126,
      "count": 1820,
      "max": [
        0.9032155622729724,
        1.0
      ],
      "min": [
        0.0,
        0.0
      ],
      "type": "VEC2"
    },
    {
      "bufferView": 24,
      "componentType": 5125,
      "count": 13668,
      "type": "SCALAR"
    },
    {
      "bufferView": 25,
      "componentType": 5126,
      "count": 3806,
      "max": [
        0.04028495990105707,
        0.040284935486995355,
        0.0033999999141087764
      ],
      "min": [
        -0.0402849110729335,
        -0.040284935486995216,
        -0.0033999999141087764
      ],
      "type": "VEC3"
    },
    {
      "bufferView": 26,
      "componentType": 5126,
      "count": 3806,
      "max": [
        0.9976517406954121,
        0.9995813782989993,
        1.0
      ],
      "min": [
        -0.9960131862062843,
        -0.999169927025696,
        -1.0
      ],
      "type": "VEC3"
    },
    {
      "bufferView": 27,
      "componentType": 5126,
      "count": 3806,
      "max": [
        0.8998549421761518,
        1.0
      ],
      "min": [
        0.0,
        0.0
      ],
      "type": "VEC2"
    }
  ],
  "asset": {
    "generator": "Adobe Illustrator",
    "version": "2.0"
  },
  "bufferViews": [
    {
      "buffer": 0,
      "byteLength": 13632,
      "target": 34963
    },
    {
      "buffer": 0,
      "byteLength": 11496,
      "byteOffset": 13632,
      "target": 34962
    },
    {
      "buffer": 0,
      "byteLength": 11496,
      "byteOffset": 25128,
      "target": 34962
    },
    {
      "buffer": 0,
      "byteLength": 7664,
      "byteOffset": 36624,
      "target": 34962
    },
    {
      "buffer": 0,
      "byteLength": 36864,
      "byteOffset": 44288,
      "target": 34963
    },
    {
      "buffer": 0,
      "byteLength": 30912,
      "byteOffset": 81152,
      "target": 34962
    },
    {
      "buffer": 0,
      "byteLength": 30912,
      "byteOffset": 112064,
      "target": 34962
    },
    {
      "buffer": 0,
      "byteLength": 20608,
      "byteOffset": 142976,
      "target": 34962
    },
    {
      "buffer": 0,
      "byteLength": 36864,
      "byteOffset": 163584,
      "target": 34963
    },
    {
      "buffer": 0,
      "byteLength": 30888,
      "byteOffset": 200448,
      "target": 34962
    },
    {
      "buffer": 0,
      "byteLength": 30888,
      "byteOffset": 231336,
      "target": 34962
    },
    {
      "buffer": 0,
      "byteLength": 20592,
      "byteOffset": 262224,
      "target": 34962
    },
    {
      "buffer": 0,
      "byteLength": 20760,
      "byteOffset": 282816,
      "target": 34963
    },
    {
      "buffer": 0,
      "byteLength": 17412,
      "byteOffset": 303576,
      "target": 34962
    },
    {
      "buffer": 0,
      "byteLength": 17412,
      "byteOffset": 320988,
      "target": 34962
    },
    {
      "buffer": 0,
      "byteLength": 11608,
      "byteOffset": 338400,
      "target": 34962
    },
    {
      "buffer": 0,
      "byteLength": 20832,
      "byteOffset": 350008,
      "target": 34963
    },
    {
      "buffer": 0,
      "byteLength": 17472,
      "byteOffset": 370840,
      "target": 34962
    },
    {
      "buffer": 0,
      "byteLength": 17472,
      "byteOffset": 388312,
      "target": 34962
    },
    {
      "buffer": 0,
      "byteLength": 11648,
      "byteOffset": 405784,
      "target": 34962
    },
    {
      "buffer": 0,
      "byteLength": 26064,
      "byteOffset": 417432,
      "target": 34963
    },
    {
      "buffer": 0,
      "byteLength": 21840,
      "byteOffset": 443496,
      "target": 34962
    },
    {
      "buffer": 0,
      "byteLength": 21840,
      "byteOffset": 465336,
      "target": 34962
    },
    {
      "buffer": 0,
      "byteLength": 14560,
      "byteOffset": 487176,
      "target": 34962
    },
    {
      "buffer": 0,
      "byteLength": 54672,
      "byteOffset": 501736,
      "target": 34963
    },
    {
      "buffer": 0,
      "byteLength": 45672,
      "byteOffset": 556408,
      "target": 34962
    },
    {
      "buffer": 0,
      "byteLength": 45672,
      "byteOffset": 602080,
      "target": 34962
    },
    {
      "buffer": 0,
      "byteLength": 30448,
      "byteOffset": 647752,
      "target": 34962
    }
  ],
  "buffers": [
    {
      "byteLength": 678200,
      "uri": "data:application/octet-stream;base64,"
    }
  ],
  "materials": [
    {
      "doubleSided": true,
      "pbrMetallicRoughness": {
        "baseColorFactor": [
          0.9999999403953552,
          0.328125,
          0.328125,
          1.0
        ],
        "metallicFactor": 0.0,
        "roughnessFactor": 0.4000000059604645
      }
    },
    {
      "doubleSided": true,
      "pbrMetallicRoughness": {
        "baseColorFactor": [
          0.0,
          0.0,
          0.0,
          1.0
        ],
        "metallicFactor": 0.0,
        "roughnessFactor": 0.4000000059604645
      }
    },
    {
      "doubleSided": true,
      "pbrMetallicRoughness": {
        "baseColorFactor": [
          0.9999999403953552,
          0.9999999403953552,
          0.9999999403953552,
          1.0
        ],
        "metallicFactor": 0.0,
        "roughnessFactor": 0.4000000059604645
      }
    },
    {
      "doubleSided": true,
      "pbrMetallicRoughness": {
        "baseColorFactor": [
          0.0,
          0.0,
          0.0,
          1.0
        ],
        "metallicFactor": 0.0,
        "roughnessFactor": 0.4000000059604645
      }
    },
    {
      "doubleSided": true,
      "pbrMetallicRoughness": {
        "baseColorFactor": [
          0.0,
          0.0,
          0.0,
          1.0
        ],
        "metallicFactor": 0.0,
        "roughnessFactor": 0.4000000059604645
      }
    },
    {
      "doubleSided": true,
      "pbrMetallicRoughness": {
        "baseColorFactor": [
          0.0,
          0.0,
          0.0,
          1.0
        ],
        "metallicFactor": 0.0,
        "roughnessFactor": 0.4000000059604645
      }
    },
    {
      "doubleSided": true,
      "pbrMetallicRoughness": {
        "baseColorFactor": [
          0.9726561903953552,
          0.92578125,
          0.0976562574505806,
          1.0
        ],
        "metallicFactor": 0.0,
        "roughnessFactor": 0.4000000059604645
      }
    }
  ],
  "meshes": [
    {
      "primitives": [
        {
          "attributes": {
            "NORMAL": 2,
            "POSITION": 1,
            "TEXCOORD_0": 3
          },
          "indices": 0,
          "material": 0,
          "mode": 4
        }
      ]
    },
    {
      "primitives": [
        {
          "attributes": {
            "NORMAL": 6,
            "POSITION": 5,
            "TEXCOORD_0": 7
          },
          "indices": 4,
          "material": 1,
          "mode": 4
        }
      ]
    },
    {
      "primitives": [
        {
          "attributes": {
            "NORMAL": 10,
            "POSITION": 9,
            "TEXCOORD_0": 11
          },
          "indices": 8,
          "material": 2,
          "mode": 4
        }
      ]
    },
    {
      "primitives": [
        {
          "attributes": {
            "NORMAL": 14,
            "POSITION": 13,
            "TEXCOORD_0": 15
          },
          "indices": 12,
          "material": 3,
          "mode": 4
        }
      ]
    },
    {
      "primitives": [
        {
          "attributes": {
            "NORMAL": 18,
            "POSITION": 17,
            "TEXCOORD_0": 19
          },
          "indices": 16,
          "material": 4,
          "mode": 4
        }
      ]
    },
    {
      "primitives": [
        {
          "attributes": {
            "NORMAL": 22,
            "POSITION": 21,
            "TEXCOORD_0": 23
          },
          "indices": 20,
          "material": 5,
          "mode": 4
        }
      ]
    },
    {
      "primitives": [
        {
          "attributes": {
            "NORMAL": 26,
            "POSITION": 25,
            "TEXCOORD_0": 27
          },
          "indices": 24,
          "material": 6,
          "mode": 4
        }
      ]
    }
  ],
  "nodes": [
    {
      "mesh": 0
    },
    {
      "mesh": 1
    },
    {
      "mesh": 2
    },
    {
      "mesh": 3
    },
    {
      "mesh": 4
    },
    {
      "mesh": 5
    },
    {
      "mesh": 6
    }
  ],
  "scenes": [
    {
      "nodes": [
        0,
        1,
        2,
        3,
        4,
        5,
        6
      ]
    }
  ]
}
