{
  "accessors": [
    {
      "bufferView": 0,
      "componentType": 5125,
      "count": 9690,
      "type": "SCALAR"
    },
    {
      "bufferView": 1,
      "componentType": 5126,
      "count": 2707,
      "max": [
        0.055722031127155736,
        0.05559292550866765,
        0.014447195761017323
      ],
      "min": [
        -0.055722031127155736,
        -0.05559292550866765,
        -0.014447195761017323
      ],
      "type": "VEC3"
    },
    {
      "bufferView": 2,
      "componentType": 5126,
      "count": 2707,
      "max": [
        0.9999999988735202,
        0.9999999721423178,
        1.0
      ],
      "min": [
        -0.9999999966784222,
        -0.9999999997330755,
        -1.0
      ],
      "type": "VEC3"
    },
    {
      "bufferView": 3,
      "componentType": 5126,
      "count": 2707,
      "max": [
        1.0,
        0.9012785325115459
      ],
      "min": [
        0.0,
        0.0
      ],
      "type": "VEC2"
    }
  ],
  "asset": {
    "generator": "Adobe Illustrator",
    "version": "2.0"
  },
  "bufferViews": [
    {
      "buffer": 0,
      "byteLength": 38760,
      "target": 34963
    },
    {
      "buffer": 0,
      "byteLength": 32484,
      "byteOffset": 38760,
      "target": 34962
    },
    {
      "buffer": 0,
      "byteLength": 32484,
      "byteOffset": 71244,
      "target": 34962
    },
    {
      "buffer": 0,
      "byteLength": 21656,
      "byteOffset": 103728,
      "target": 34962
    }
  ],
  "buffers": [
    {
      "byteLength": 125384,
      "uri": "data:application/octet-stream;base64,"
    }
  ],
  "materials": [
    {
      "doubleSided": true,
      "pbrMetallicRoughness": {
        "baseColorFactor": [
          0.03125,
          0.3984375,
          0.9921874403953552,
          1.0
        ],
        "metallicFactor": 0.0,
        "roughnessFactor": 0.4000000059604645
      }
    }
  ],
  "meshes": [
    {
      "primitives": [
        {
          "attributes": {
            "NORMAL": 2,
            "POSITION": 1,
            "TEXCOORD_0": 3
          },
          "indices": 0,
          "material": 0,
          "mode": 4
        }
      ]
    }
  ],
  "nodes": [
    {
      "mesh": 0
    }
  ],
  "scenes": [
    {
      "nodes": [
        0
      ]
    }
  ]
}
