{
  "accessors": [
    {
      "bufferView": 0,
      "componentType": 5125,
      "count": 7650,
      "type": "SCALAR"
    },
    {
      "bufferView": 1,
      "componentType": 5126,
      "count": 2137,
      "max": [
        0.056090855497807346,
        0.05610714398448796,
        0.009999999747378736
      ],
      "min": [
        -0.056090855497807346,
        -0.05610714398448795,
        -0.00999999974737876
      ],
      "type": "VEC3"
    },
    {
      "bufferView": 2,
      "componentType": 5126,
      "count": 2137,
      "max": [
        0.9999996944260882,
        0.9999999366669077,
        1.0
      ],
      "min": [
        -0.9999995342073936,
        -0.9999995424825905,
        -1.0
      ],
      "type": "VEC3"
    },
    {
      "bufferView": 3,
      "componentType": 5126,
      "count": 2137,
      "max": [
        1.0,
        0.970958679147741
      ],
      "min": [
        0.0,
        0.0
      ],
      "type": "VEC2"
    },
    {
      "bufferView": 4,
      "componentType": 5125,
      "count": 4938,
      "type": "SCALAR"
    },
    {
      "bufferView": 5,
      "componentType": 5126,
      "count": 1383,
      "max": [
        0.016608919363469032,
        0.016144428565950247,
        0.009999999747378743
      ],
      "min": [
        -0.01659127265478888,
        -0.016137383117913934,
        -0.00999999974737876
      ],
      "type": "VEC3"
    },
    {
      "bufferView": 6,
      "componentType": 5126,
      "count": 1383,
      "max": [
        0.9999902208889054,
        0.9999961595161616,
        1.0
      ],
      "min": [
        -0.9999881489891176,
        -0.9998990079674552,
        -1.0
      ],
      "type": "VEC3"
    },
    {
      "bufferView": 7,
      "componentType": 5126,
      "count": 1383,
      "max": [
        0.9138914848927963,
        1.0
      ],
      "min": [
        0.0,
        0.0
      ],
      "type": "VEC2"
    },
    {
      "bufferView": 8,
      "componentType": 5125,
      "count": 9504,
      "type": "SCALAR"
    },
    {
      "bufferView": 9,
      "componentType": 5126,
      "count": 2654,
      "max": [
        0.03222650889106843,
        0.0324123858742916,
        0.00999999974737876
      ],
      "min": [
        -0.03210573185471821,
        -0.03225855667678548,
        -0.00999999974737876
      ],
      "type": "VEC3"
    },
    {
      "bufferView": 10,
      "componentType": 5126,
      "count": 2654,
      "max": [
        0.9999999801787414,
        0.9999998778621852,
        1.0
      ],
      "min": [
        -0.9999998962212643,
        -0.9999999366729844,
        -1.0
      ],
      "type": "VEC3"
    },
    {
      "bufferView": 11,
      "componentType": 5126,
      "count": 2654,
      "max": [
        0.8655768209438109,
        1.0
      ],
      "min": [
        0.0,
        0.0
      ],
      "type": "VEC2"
    },
    {
      "bufferView": 12,
      "componentType": 5125,
      "count": 9342,
      "type": "SCALAR"
    },
    {
      "bufferView": 13,
      "componentType": 5126,
      "count": 2609,
      "max": [
        0.026761884194973273,
        0.026923606732549704,
        0.009999999747378743
      ],
      "min": [
        -0.02648512591667629,
        -0.026335476651020456,
        -0.00999999974737876
      ],
      "type": "VEC3"
    },
    {
      "bufferView": 14,
      "componentType": 5126,
      "count": 2609,
      "max": [
        0.9999998962211857,
        0.9999420467486242,
        1.0
      ],
      "min": [
        -0.9999999801928947,
        -0.999999975382719,
        -1.0
      ],
      "type": "VEC3"
    },
    {
      "bufferView": 15,
      "componentType": 5126,
      "count": 2609,
      "max": [
        1.0,
        0.9683596374591621
      ],
      "min": [
        0.0,
        0.0
      ],
      "type": "VEC2"
    }
  ],
  "asset": {
    "generator": "Adobe Illustrator",
    "version": "2.0"
  },
  "bufferViews": [
    {
      "buffer": 0,
      "byteLength": 30600,
      "target": 34963
    },
    {
      "buffer": 0,
      "byteLength": 25644,
      "byteOffset": 30600,
      "target": 34962
    },
    {
      "buffer": 0,
      "byteLength": 25644,
      "byteOffset": 56244,
      "target": 34962
    },
    {
      "buffer": 0,
      "byteLength": 17096,
      "byteOffset": 81888,
      "target": 34962
    },
    {
      "buffer": 0,
      "byteLength": 19752,
      "byteOffset": 98984,
      "target": 34963
    },
    {
      "buffer": 0,
      "byteLength": 16596,
      "byteOffset": 118736,
      "target": 34962
    },
    {
      "buffer": 0,
      "byteLength": 16596,
      "byteOffset": 135332,
      "target": 34962
    },
    {
      "buffer": 0,
      "byteLength": 11064,
      "byteOffset": 151928,
      "target": 34962
    },
    {
      "buffer": 0,
      "byteLength": 38016,
      "byteOffset": 162992,
      "target": 34963
    },
    {
      "buffer": 0,
      "byteLength": 31848,
      "byteOffset": 201008,
      "target": 34962
    },
    {
      "buffer": 0,
      "byteLength": 31848,
      "byteOffset": 232856,
      "target": 34962
    },
    {
      "buffer": 0,
      "byteLength": 21232,
      "byteOffset": 264704,
      "target": 34962
    },
    {
      "buffer": 0,
      "byteLength": 37368,
      "byteOffset": 285936,
      "target": 34963
    },
    {
      "buffer": 0,
      "byteLength": 31308,
      "byteOffset": 323304,
      "target": 34962
    },
    {
      "buffer": 0,
      "byteLength": 31308,
      "byteOffset": 354612,
      "target": 34962
    },
    {
      "buffer": 0,
      "byteLength": 20872,
      "byteOffset": 385920,
      "target": 34962
    }
  ],
  "buffers": [
    {
      "byteLength": 406792,
      "uri": "data:application/octet-stream;base64,"
    }
  ],
  "materials": [
    {
      "doubleSided": true,
      "pbrMetallicRoughness": {
        "baseColorFactor": [
          0.19921875,
          0.84375,
          0.31640625,
          1.0
        ],
        "metallicFactor": 0.0,
        "roughnessFactor": 0.4000000059604645
      }
    },
    {
      "doubleSided": true,
      "pbrMetallicRoughness": {
        "baseColorFactor": [
          0.9843749403953552,
          0.9921874403953552,
          0.9843749403953552,
          1.0
        ],
        "metallicFactor": 0.0,
        "roughnessFactor": 0.4000000059604645
      }
    },
    {
      "doubleSided": true,
      "pbrMetallicRoughness": {
        "baseColorFactor": [
          0.9843749403953552,
          0.9921874403953552,
          0.9843749403953552,
          1.0
        ],
        "metallicFactor": 0.0,
        "roughnessFactor": 0.4000000059604645
      }
    },
    {
      "doubleSided": true,
      "pbrMetallicRoughness": {
        "baseColorFactor": [
          0.19921875,
          0.84375,
          0.31640625,
          1.0
        ],
        "metallicFactor": 0.0,
        "roughnessFactor": 0.4000000059604645
      }
    }
  ],
  "meshes": [
    {
      "primitives": [
        {
          "attributes": {
            "NORMAL": 2,
            "POSITION": 1,
            "TEXCOORD_0": 3
          },
          "indices": 0,
          "material": 0,
          "mode": 4
        }
      ]
    },
    {
      "primitives": [
        {
          "attributes": {
            "NORMAL": 6,
            "POSITION": 5,
            "TEXCOORD_0": 7
          },
          "indices": 4,
          "material": 1,
          "mode": 4
        }
      ]
    },
    {
      "primitives": [
        {
          "attributes": {
            "NORMAL": 10,
            "POSITION": 9,
            "TEXCOORD_0": 11
          },
          "indices": 8,
          "material": 2,
          "mode": 4
        }
      ]
    },
    {
      "primitives": [
        {
          "attributes": {
            "NORMAL": 14,
            "POSITION": 13,
            "TEXCOORD_0": 15
          },
          "indices": 12,
          "material": 3,
          "mode": 4
        }
      ]
    }
  ],
  "nodes": [
    {
      "mesh": 0
    },
    {
      "mesh": 1
    },
    {
      "mesh": 2
    },
    {
      "mesh": 3
    }
  ],
  "scenes": [
    {
      "nodes": [
        0,
        1,
        2,
        3
      ]
    }
  ]
}
