{
  "accessors": [
    {
      "bufferView": 0,
      "componentType": 5125,
      "count": 4668,
      "type": "SCALAR"
    },
    {
      "bufferView": 1,
      "componentType": 5126,
      "count": 1308,
      "max": [
        0.026130173329597356,
        0.026114733533995238,
        0.009999999747378738
      ],
      "min": [
        0.016539484420960343,
        0.016531212648342675,
        -0.009999999747378759
      ],
      "type": "VEC3"
    },
    {
      "bufferView": 2,
      "componentType": 5126,
      "count": 1308,
      "max": [
        0.999995158194956,
        0.9999998081651317,
        1.0
      ],
      "min": [
        -0.9999965445200985,
        -0.999999478233848,
        -1.0
      ],
      "type": "VEC3"
    },
    {
      "bufferView": 3,
      "componentType": 5126,
      "count": 1308,
      "max": [
        1.0,
        0.9660457492258366
      ],
      "min": [
        0.0,
        0.0
      ],
      "type": "VEC2"
    },
    {
      "bufferView": 4,
      "componentType": 5125,
      "count": 4506,
      "type": "SCALAR"
    },
    {
      "bufferView": 5,
      "componentType": 5126,
      "count": 1263,
      "max": [
        0.01331607483034103,
        0.013299086693307427,
        0.009999999747378741
      ],
      "min": [
        -0.013322001833970615,
        -0.013316994203436933,
        -0.009999999747378759
      ],
      "type": "VEC3"
    },
    {
      "bufferView": 6,
      "componentType": 5126,
      "count": 1263,
      "max": [
        0.9999971492833619,
        0.9999988739688207,
        1.0
      ],
      "min": [
        -0.9999999769921303,
        -0.9999989624694081,
        -1.0
      ],
      "type": "VEC3"
    },
    {
      "bufferView": 7,
      "componentType": 5126,
      "count": 1263,
      "max": [
        0.7967551851142233,
        1.0
      ],
      "min": [
        0.0,
        0.0
      ],
      "type": "VEC2"
    },
    {
      "bufferView": 8,
      "componentType": 5125,
      "count": 7326,
      "type": "SCALAR"
    },
    {
      "bufferView": 9,
      "componentType": 5126,
      "count": 2049,
      "max": [
        0.02050067072005704,
        0.020481027048122158,
        0.009999999747378745
      ],
      "min": [
        -0.020565399622260727,
        -0.02053173249943785,
        -0.009999999747378759
      ],
      "type": "VEC3"
    },
    {
      "bufferView": 10,
      "componentType": 5126,
      "count": 2049,
      "max": [
        0.9999999439661404,
        0.9999997309932225,
        1.0
      ],
      "min": [
        -0.9999921205627709,
        -0.9999988753336704,
        -1.0
      ],
      "type": "VEC3"
    },
    {
      "bufferView": 11,
      "componentType": 5126,
      "count": 2049,
      "max": [
        0.9210060463826379,
        1.0
      ],
      "min": [
        0.0,
        0.0
      ],
      "type": "VEC2"
    },
    {
      "bufferView": 12,
      "componentType": 5125,
      "count": 8310,
      "type": "SCALAR"
    },
    {
      "bufferView": 13,
      "componentType": 5126,
      "count": 2319,
      "max": [
        0.03282320154938276,
        0.03278550933337493,
        0.009999999747378745
      ],
      "min": [
        -0.03279158743181715,
        -0.032815378315680904,
        -0.009999999747378759
      ],
      "type": "VEC3"
    },
    {
      "bufferView": 14,
      "componentType": 5126,
      "count": 2319,
      "max": [
        0.99999999993477,
        0.9999998781749075,
        1.0
      ],
      "min": [
        -0.9999999445027166,
        -0.9999998075379312,
        -1.0
      ],
      "type": "VEC3"
    },
    {
      "bufferView": 15,
      "componentType": 5126,
      "count": 2319,
      "max": [
        0.9040401050199507,
        1.0
      ],
      "min": [
        0.0,
        0.0
      ],
      "type": "VEC2"
    },
    {
      "bufferView": 16,
      "componentType": 5125,
      "count": 8082,
      "type": "SCALAR"
    },
    {
      "bufferView": 17,
      "componentType": 5126,
      "count": 2259,
      "max": [
        0.03999880984024101,
        0.03999850173247382,
        0.009999999747378738
      ],
      "min": [
        -0.04002188874927247,
        -0.040038464782270994,
        -0.009999999747378759
      ],
      "type": "VEC3"
    },
    {
      "bufferView": 18,
      "componentType": 5126,
      "count": 2259,
      "max": [
        0.9999999445328651,
        0.9999999587286086,
        1.0
      ],
      "min": [
        -0.9999999999355156,
        -0.9999999664759669,
        -1.0
      ],
      "type": "VEC3"
    },
    {
      "bufferView": 19,
      "componentType": 5126,
      "count": 2259,
      "max": [
        0.9926534277907101,
        1.0
      ],
      "min": [
        0.0,
        0.0
      ],
      "type": "VEC2"
    },
    {
      "bufferView": 20,
      "componentType": 5125,
      "count": 7362,
      "type": "SCALAR"
    },
    {
      "bufferView": 21,
      "componentType": 5126,
      "count": 2063,
      "max": [
        0.05451687637820868,
        0.054519287762235746,
        0.009999999747378759
      ],
      "min": [
        -0.05451687637820869,
        -0.054519287762235746,
        -0.009999999747378759
      ],
      "type": "VEC3"
    },
    {
      "bufferView": 22,
      "componentType": 5126,
      "count": 2063,
      "max": [
        0.9999999999999986,
        0.9999999999999986,
        1.0
      ],
      "min": [
        -0.9999999956676459,
        -0.9999999587920478,
        -1.0
      ],
      "type": "VEC3"
    },
    {
      "bufferView": 23,
      "componentType": 5126,
      "count": 2063,
      "max": [
        0.9592135532064445,
        1.0
      ],
      "min": [
        0.0,
        0.0
      ],
      "type": "VEC2"
    }
  ],
  "asset": {
    "generator": "Adobe Illustrator",
    "version": "2.0"
  },
  "bufferViews": [
    {
      "buffer": 0,
      "byteLength": 18672,
      "target": 34963
    },
    {
      "buffer": 0,
      "byteLength": 15696,
      "byteOffset": 18672,
      "target": 34962
    },
    {
      "buffer": 0,
      "byteLength": 15696,
      "byteOffset": 34368,
      "target": 34962
    },
    {
      "buffer": 0,
      "byteLength": 10464,
      "byteOffset": 50064,
      "target": 34962
    },
    {
      "buffer": 0,
      "byteLength": 18024,
      "byteOffset": 60528,
      "target": 34963
    },
    {
      "buffer": 0,
      "byteLength": 15156,
      "byteOffset": 78552,
      "target": 34962
    },
    {
      "buffer": 0,
      "byteLength": 15156,
      "byteOffset": 93708,
      "target": 34962
    },
    {
      "buffer": 0,
      "byteLength": 10104,
      "byteOffset": 108864,
      "target": 34962
    },
    {
      "buffer": 0,
      "byteLength": 29304,
      "byteOffset": 118968,
      "target": 34963
    },
    {
      "buffer": 0,
      "byteLength": 24588,
      "byteOffset": 148272,
      "target": 34962
    },
    {
      "buffer": 0,
      "byteLength": 24588,
      "byteOffset": 172860,
      "target": 34962
    },
    {
      "buffer": 0,
      "byteLength": 16392,
      "byteOffset": 197448,
      "target": 34962
    },
    {
      "buffer": 0,
      "byteLength": 33240,
      "byteOffset": 213840,
      "target": 34963
    },
    {
      "buffer": 0,
      "byteLength": 27828,
      "byteOffset": 247080,
      "target": 34962
    },
    {
      "buffer": 0,
      "byteLength": 27828,
      "byteOffset": 274908,
      "target": 34962
    },
    {
      "buffer": 0,
      "byteLength": 18552,
      "byteOffset": 302736,
      "target": 34962
    },
    {
      "buffer": 0,
      "byteLength": 32328,
      "byteOffset": 321288,
      "target": 34963
    },
    {
      "buffer": 0,
      "byteLength": 27108,
      "byteOffset": 353616,
      "target": 34962
    },
    {
      "buffer": 0,
      "byteLength": 27108,
      "byteOffset": 380724,
      "target": 34962
    },
    {
      "buffer": 0,
      "byteLength": 18072,
      "byteOffset": 407832,
      "target": 34962
    },
    {
      "buffer": 0,
      "byteLength": 29448,
      "byteOffset": 425904,
      "target": 34963
    },
    {
      "buffer": 0,
      "byteLength": 24756,
      "byteOffset": 455352,
      "target": 34962
    },
    {
      "buffer": 0,
      "byteLength": 24756,
      "byteOffset": 480108,
      "target": 34962
    },
    {
      "buffer": 0,
      "byteLength": 16504,
      "byteOffset": 504864,
      "target": 34962
    }
  ],
  "buffers": [
    {
      "byteLength": 521368,
      "uri": "data:application/octet-stream;base64,"
    }
  ],
  "images": [
    {
      "name": "BaseColor",
      "uri": "data:image/png;base64,"
    },
    {
      "name": "BaseColor",
      "uri": "data:image/png;base64,"
    },
    {
      "name": "BaseColor",
      "uri": "data:image/png;base64,"
    }
  ],
  "materials": [
    {
      "doubleSided": true,
      "pbrMetallicRoughness": {
        "baseColorFactor": [
          0.9921874403953552,
          0.9882811903953552,
          0.9882811903953552,
          1.0
        ],
        "metallicFactor": 0.0,
        "roughnessFactor": 0.4000000059604645
      }
    },
    {
      "doubleSided": true,
      "pbrMetallicRoughness": {
        "baseColorTexture": {
          "index": 0
        },
        "metallicFactor": 0.0,
        "roughnessFactor": 0.4000000059604645
      }
    },
    {
      "doubleSided": true,
      "pbrMetallicRoughness": {
        "baseColorFactor": [
          0.9921874403953552,
          0.9882811903953552,
          0.9882811903953552,
          1.0
        ],
        "metallicFactor": 0.0,
        "roughnessFactor": 0.4000000059604645
      }
    },
    {
      "doubleSided": true,
      "pbrMetallicRoughness": {
        "baseColorTexture": {
          "index": 1
        },
        "metallicFactor": 0.0,
        "roughnessFactor": 0.4000000059604645
      }
    },
    {
      "doubleSided": true,
      "pbrMetallicRoughness": {
        "baseColorFactor": [
          0.9921874403953552,
          0.9882811903953552,
          0.9882811903953552,
          1.0
        ],
        "metallicFactor": 0.0,
        "roughnessFactor": 0.4000000059604645
      }
    },
    {
      "doubleSided": true,
      "pbrMetallicRoughness": {
        "baseColorTexture": {
          "index": 2
        },
        "metallicFactor": 0.0,
        "roughnessFactor": 0.4000000059604645
      }
    }
  ],
  "meshes": [
    {
      "primitives": [
        {
          "attributes": {
            "NORMAL": 2,
            "POSITION": 1,
            "TEXCOORD_0": 3
          },
          "indices": 0,
          "material": 0,
          "mode": 4
        }
      ]
    },
    {
      "primitives": [
        {
          "attributes": {
            "NORMAL": 6,
            "POSITION": 5,
            "TEXCOORD_0": 7
          },
          "indices": 4,
          "material": 1,
          "mode": 4
        }
      ]
    },
    {
      "primitives": [
        {
          "attributes": {
            "NORMAL": 10,
            "POSITION": 9,
            "TEXCOORD_0": 11
          },
          "indices": 8,
          "material": 2,
          "mode": 4
        }
      ]
    },
    {
      "primitives": [
        {
          "attributes": {
            "NORMAL": 14,
            "POSITION": 13,
            "TEXCOORD_0": 15
          },
          "indices": 12,
          "material": 3,
          "mode": 4
        }
      ]
    },
    {
      "primitives": [
        {
          "attributes": {
            "NORMAL": 18,
            "POSITION": 17,
            "TEXCOORD_0": 19
          },
          "indices": 16,
          "material": 4,
          "mode": 4
        }
      ]
    },
    {
      "primitives": [
        {
          "attributes": {
            "NORMAL": 22,
            "POSITION": 21,
            "TEXCOORD_0": 23
          },
          "indices": 20,
          "material": 5,
          "mode": 4
        }
      ]
    }
  ],
  "nodes": [
    {
      "mesh": 0
    },
    {
      "mesh": 1
    },
    {
      "mesh": 2
    },
    {
      "mesh": 3
    },
    {
      "mesh": 4
    },
    {
      "mesh": 5
    }
  ],
  "samplers": [
    {
      "magFilter": 9729,
      "minFilter": 9729,
      "wrapS": 10497,
      "wrapT": 10497
    },
    {
      "magFilter": 9729,
      "minFilter": 9729,
      "wrapS": 10497,
      "wrapT": 10497
    },
    {
      "magFilter": 9729,
      "minFilter": 9729,
      "wrapS": 10497,
      "wrapT": 10497
    }
  ],
  "scenes": [
    {
      "nodes": [
        0,
        1,
        2,
        3,
        4,
        5
      ]
    }
  ],
  "textures": [
    {
      "sampler": 0,
      "source": 0
    },
    {
      "sampler": 1,
      "source": 1
    },
    {
      "sampler": 2,
      "source": 2
    }
  ]
}
