{
  "accessors": [
    {
      "bufferView": 0,
      "componentType": 5125,
      "count": 12,
      "type": "SCALAR"
    },
    {
      "bufferView": 1,
      "componentType": 5126,
      "count": 5,
      "max": [
        -0.27812917352244426,
        -0.08535842355054839,
        0.024199999388656555
      ],
      "min": [
        -0.2781292711786918,
        -0.0853584723786721,
        -0.024199999388656603
      ],
      "type": "VEC3"
    },
    {
      "bufferView": 2,
      "componentType": 5126,
      "count": 5,
      "max": [
        -0.44721359516675796,
        -0.8944271911665159,
        0.0
      ],
      "min": [
        -0.44721359516675796,
        -0.8944271911665159,
        0.0
      ],
      "type": "VEC3"
    },
    {
      "bufferView": 3,
      "componentType": 5126,
      "count": 5,
      "max": [
        2.2558472458586265e-06,
        1.0
      ],
      "min": [
        0.0,
        0.0
      ],
      "type": "VEC2"
    },
    {
      "bufferView": 4,
      "componentType": 5125,
      "count": 870,
      "type": "SCALAR"
    },
    {
      "bufferView": 5,
      "componentType": 5126,
      "count": 251,
      "max": [
        0.16700020715313868,
        -0.09845388762382483,
        0.024199999388656555
      ],
      "min": [
        0.16698644023151288,
        -0.09845393102243966,
        -0.024199999388656603
      ],
      "type": "VEC3"
    },
    {
      "bufferView": 6,
      "componentType": 5126,
      "count": 251,
      "max": [
        0.006007479155498084,
        0.9999995468301736,
        1.0
      ],
      "min": [
        -0.00315236770987623,
        -0.9999950312765667,
        -1.0
      ],
      "type": "VEC3"
    },
    {
      "bufferView": 7,
      "componentType": 5126,
      "count": 251,
      "max": [
        0.024906131384336592,
        1.0
      ],
      "min": [
        0.0,
        0.0
      ],
      "type": "VEC2"
    },
    {
      "bufferView": 8,
      "componentType": 5125,
      "count": 222,
      "type": "SCALAR"
    },
    {
      "bufferView": 9,
      "componentType": 5126,
      "count": 91,
      "max": [
        0.0694698587860314,
        0.09218729224635623,
        0.024199999388656603
      ],
      "min": [
        -0.12986430348485478,
        -0.09510979932884625,
        -0.024199999388656603
      ],
      "type": "VEC3"
    },
    {
      "bufferView": 10,
      "componentType": 5126,
      "count": 91,
      "max": [
        0.9999999999281878,
        0.9999999999281879,
        1.0
      ],
      "min": [
        -0.9999999999281878,
        -0.9999999999281879,
        -1.0
      ],
      "type": "VEC3"
    },
    {
      "bufferView": 11,
      "componentType": 5126,
      "count": 91,
      "max": [
        1.0,
        0.9741085772597275
      ],
      "min": [
        0.0,
        0.0
      ],
      "type": "VEC2"
    },
    {
      "bufferView": 12,
      "componentType": 5125,
      "count": 1734,
      "type": "SCALAR"
    },
    {
      "bufferView": 13,
      "componentType": 5126,
      "count": 511,
      "max": [
        0.33702872113544013,
        0.08536103010178996,
        0.024199999388656534
      ],
      "min": [
        0.23776700480933988,
        -0.09818438196203506,
        -0.024199999388656603
      ],
      "type": "VEC3"
    },
    {
      "bufferView": 14,
      "componentType": 5126,
      "count": 511,
      "max": [
        1.0,
        1.0,
        1.0
      ],
      "min": [
        -1.0,
        -1.0,
        -1.0
      ],
      "type": "VEC3"
    },
    {
      "bufferView": 15,
      "componentType": 5126,
      "count": 511,
      "max": [
        1.0,
        0.9335734033197404
      ],
      "min": [
        0.0,
        0.0
      ],
      "type": "VEC2"
    },
    {
      "bufferView": 16,
      "componentType": 5125,
      "count": 5544,
      "type": "SCALAR"
    },
    {
      "bufferView": 17,
      "componentType": 5126,
      "count": 1560,
      "max": [
        0.22892999336601183,
        0.04777089440943022,
        0.024199999388656555
      ],
      "min": [
        0.09635763341312487,
        -0.09845385782408797,
        -0.024199999388656603
      ],
      "type": "VEC3"
    },
    {
      "bufferView": 18,
      "componentType": 5126,
      "count": 1560,
      "max": [
        1.0,
        1.0,
        1.0
      ],
      "min": [
        -0.9999999742641985,
        -1.0,
        -1.0
      ],
      "type": "VEC3"
    },
    {
      "bufferView": 19,
      "componentType": 5126,
      "count": 1560,
      "max": [
        1.0,
        0.9749094583312303
      ],
      "min": [
        0.0,
        0.0
      ],
      "type": "VEC2"
    },
    {
      "bufferView": 20,
      "componentType": 5125,
      "count": 5292,
      "type": "SCALAR"
    },
    {
      "bufferView": 21,
      "componentType": 5126,
      "count": 1490,
      "max": [
        0.4890035758808,
        0.04776254565601145,
        0.024199999388656534
      ],
      "min": [
        0.3509409420063596,
        -0.09845261696391146,
        -0.024199999388656603
      ],
      "type": "VEC3"
    },
    {
      "bufferView": 22,
      "componentType": 5126,
      "count": 1490,
      "max": [
        0.9999999991865146,
        0.9999999998901312,
        1.0
      ],
      "min": [
        -0.9999999998901311,
        -0.9999999998901312,
        -1.0
      ],
      "type": "VEC3"
    },
    {
      "bufferView": 23,
      "componentType": 5126,
      "count": 1490,
      "max": [
        1.0,
        0.969271784193452
      ],
      "min": [
        0.0,
        0.0
      ],
      "type": "VEC2"
    },
    {
      "bufferView": 24,
      "componentType": 5125,
      "count": 13566,
      "type": "SCALAR"
    },
    {
      "bufferView": 25,
      "componentType": 5126,
      "count": 3787,
      "max": [
        -0.1899052987283799,
        0.0994526858721498,
        0.024199999388656534
      ],
      "min": [
        -0.4890035758807998,
        -0.0994526858721498,
        -0.024199999388656603
      ],
      "type": "VEC3"
    },
    {
      "bufferView": 26,
      "componentType": 5126,
      "count": 3787,
      "max": [
        1.0,
        0.9999996295585996,
        1.0
      ],
      "min": [
        -0.9999993012553808,
        -1.0,
        -1.0
      ],
      "type": "VEC3"
    },
    {
      "bufferView": 27,
      "componentType": 5126,
      "count": 3787,
      "max": [
        1.0,
        0.9120168016941086
      ],
      "min": [
        0.0,
        0.0
      ],
      "type": "VEC2"
    }
  ],
  "asset": {
    "generator": "Adobe Illustrator",
    "version": "2.0"
  },
  "bufferViews": [
    {
      "buffer": 0,
      "byteLength": 48,
      "target": 34963
    },
    {
      "buffer": 0,
      "byteLength": 60,
      "byteOffset": 48,
      "target": 34962
    },
    {
      "buffer": 0,
      "byteLength": 60,
      "byteOffset": 108,
      "target": 34962
    },
    {
      "buffer": 0,
      "byteLength": 40,
      "byteOffset": 168,
      "target": 34962
    },
    {
      "buffer": 0,
      "byteLength": 3480,
      "byteOffset": 208,
      "target": 34963
    },
    {
      "buffer": 0,
      "byteLength": 3012,
      "byteOffset": 3688,
      "target": 34962
    },
    {
      "buffer": 0,
      "byteLength": 3012,
      "byteOffset": 6700,
      "target": 34962
    },
    {
      "buffer": 0,
      "byteLength": 2008,
      "byteOffset": 9712,
      "target": 34962
    },
    {
      "buffer": 0,
      "byteLength": 888,
      "byteOffset": 11720,
      "target": 34963
    },
    {
      "buffer": 0,
      "byteLength": 1092,
      "byteOffset": 12608,
      "target": 34962
    },
    {
      "buffer": 0,
      "byteLength": 1092,
      "byteOffset": 13700,
      "target": 34962
    },
    {
      "buffer": 0,
      "byteLength": 728,
      "byteOffset": 14792,
      "target": 34962
    },
    {
      "buffer": 0,
      "byteLength": 6936,
      "byteOffset": 15520,
      "target": 34963
    },
    {
      "buffer": 0,
      "byteLength": 6132,
      "byteOffset": 22456,
      "target": 34962
    },
    {
      "buffer": 0,
      "byteLength": 6132,
      "byteOffset": 28588,
      "target": 34962
    },
    {
      "buffer": 0,
      "byteLength": 4088,
      "byteOffset": 34720,
      "target": 34962
    },
    {
      "buffer": 0,
      "byteLength": 22176,
      "byteOffset": 38808,
      "target": 34963
    },
    {
      "buffer": 0,
      "byteLength": 18720,
      "byteOffset": 60984,
      "target": 34962
    },
    {
      "buffer": 0,
      "byteLength": 18720,
      "byteOffset": 79704,
      "target": 34962
    },
    {
      "buffer": 0,
      "byteLength": 12480,
      "byteOffset": 98424,
      "target": 34962
    },
    {
      "buffer": 0,
      "byteLength": 21168,
      "byteOffset": 110904,
      "target": 34963
    },
    {
      "buffer": 0,
      "byteLength": 17880,
      "byteOffset": 132072,
      "target": 34962
    },
    {
      "buffer": 0,
      "byteLength": 17880,
      "byteOffset": 149952,
      "target": 34962
    },
    {
      "buffer": 0,
      "byteLength": 11920,
      "byteOffset": 167832,
      "target": 34962
    },
    {
      "buffer": 0,
      "byteLength": 54264,
      "byteOffset": 179752,
      "target": 34963
    },
    {
      "buffer": 0,
      "byteLength": 45444,
      "byteOffset": 234016,
      "target": 34962
    },
    {
      "buffer": 0,
      "byteLength": 45444,
      "byteOffset": 279460,
      "target": 34962
    },
    {
      "buffer": 0,
      "byteLength": 30296,
      "byteOffset": 324904,
      "target": 34962
    }
  ],
  "buffers": [
    {
      "byteLength": 355200,
      "uri": "data:application/octet-stream;base64,"
    }
  ],
  "materials": [
    {
      "doubleSided": true,
      "pbrMetallicRoughness": {
        "baseColorFactor": [
          0.03125,
          0.41015625,
          0.8789061903953552,
          1.0
        ],
        "metallicFactor": 0.0,
        "roughnessFactor": 0.4000000059604645
      }
    },
    {
      "doubleSided": true,
      "pbrMetallicRoughness": {
        "baseColorFactor": [
          0.1093750074505806,
          0.16796875,
          0.19921875,
          1.0
        ],
        "metallicFactor": 0.0,
        "roughnessFactor": 0.4000000059604645
      }
    },
    {
      "doubleSided": true,
      "pbrMetallicRoughness": {
        "baseColorFactor": [
          0.1093750074505806,
          0.16796875,
          0.19921875,
          1.0
        ],
        "metallicFactor": 0.0,
        "roughnessFactor": 0.4000000059604645
      }
    },
    {
      "doubleSided": true,
      "pbrMetallicRoughness": {
        "baseColorFactor": [
          0.1093750074505806,
          0.16796875,
          0.19921875,
          1.0
        ],
        "metallicFactor": 0.0,
        "roughnessFactor": 0.4000000059604645
      }
    },
    {
      "doubleSided": true,
      "pbrMetallicRoughness": {
        "baseColorFactor": [
          0.1093750074505806,
          0.16796875,
          0.19921875,
          1.0
        ],
        "metallicFactor": 0.0,
        "roughnessFactor": 0.4000000059604645
      }
    },
    {
      "doubleSided": true,
      "pbrMetallicRoughness": {
        "baseColorFactor": [
          0.1093750074505806,
          0.16796875,
          0.19921875,
          1.0
        ],
        "metallicFactor": 0.0,
        "roughnessFactor": 0.4000000059604645
      }
    },
    {
      "doubleSided": true,
      "pbrMetallicRoughness": {
        "baseColorFactor": [
          0.03125,
          0.41015625,
          0.8789061903953552,
          1.0
        ],
        "metallicFactor": 0.0,
        "roughnessFactor": 0.4000000059604645
      }
    }
  ],
  "meshes": [
    {
      "primitives": [
        {
          "attributes": {
            "NORMAL": 2,
            "POSITION": 1,
            "TEXCOORD_0": 3
          },
          "indices": 0,
          "material": 0,
          "mode": 4
        }
      ]
    },
    {
      "primitives": [
        {
          "attributes": {
            "NORMAL": 6,
            "POSITION": 5,
            "TEXCOORD_0": 7
          },
          "indices": 4,
          "material": 1,
          "mode": 4
        }
      ]
    },
    {
      "primitives": [
        {
          "attributes": {
            "NORMAL": 10,
            "POSITION": 9,
            "TEXCOORD_0": 11
          },
          "indices": 8,
          "material": 2,
          "mode": 4
        }
      ]
    },
    {
      "primitives": [
        {
          "attributes": {
            "NORMAL": 14,
            "POSITION": 13,
            "TEXCOORD_0": 15
          },
          "indices": 12,
          "material": 3,
          "mode": 4
        }
      ]
    },
    {
      "primitives": [
        {
          "attributes": {
            "NORMAL": 18,
            "POSITION": 17,
            "TEXCOORD_0": 19
          },
          "indices": 16,
          "material": 4,
          "mode": 4
        }
      ]
    },
    {
      "primitives": [
        {
          "attributes": {
            "NORMAL": 22,
            "POSITION": 21,
            "TEXCOORD_0": 23
          },
          "indices": 20,
          "material": 5,
          "mode": 4
        }
      ]
    },
    {
      "primitives": [
        {
          "attributes": {
            "NORMAL": 26,
            "POSITION": 25,
            "TEXCOORD_0": 27
          },
          "indices": 24,
          "material": 6,
          "mode": 4
        }
      ]
    }
  ],
  "nodes": [
    {
      "mesh": 0
    },
    {
      "mesh": 1
    },
    {
      "mesh": 2
    },
    {
      "mesh": 3
    },
    {
      "mesh": 4
    },
    {
      "mesh": 5
    },
    {
      "mesh": 6
    }
  ],
  "scenes": [
    {
      "nodes": [
        0,
        1,
        2,
        3,
        4,
        5,
        6
      ]
    }
  ]
}
